<svg id="logotipo" xmlns="http://www.w3.org/2000/svg" viewBox="0 0 638.55 115.8"><defs><style>.cls-1{font-size:31px;fill:#3a3a3c;font-family:ArialMT, Arial;}.cls-2{letter-spacing:-0.07em;}.cls-3{letter-spacing:0em;}.cls-4{font-family:Arial-BoldMT, Arial;font-weight:700;}.cls-5{letter-spacing:-0.02em;}.cls-6{letter-spacing:0em;}.cls-7{letter-spacing:-0.04em;}.cls-8{letter-spacing:-0.04em;}.cls-9{fill:#008d36;}.cls-10{fill:#e30412;}.cls-11{fill:#fff;}.cls-12{fill:#c6c6c6;}</style></defs><text class="cls-1" transform="translate(140.42 54.22)">COMPLEJO EDUC<tspan class="cls-2" x="266.98" y="0">A</tspan><tspan class="cls-3" x="285.36" y="0">TIVO</tspan><tspan class="cls-4"><tspan x="0" y="37.2">INSTITU</tspan><tspan class="cls-5" x="120.55" y="37.2">T</tspan><tspan class="cls-3" x="138.92" y="37.2">O DE CU</tspan><tspan class="cls-2" x="268.1" y="37.2">L</tspan><tspan class="cls-6" x="284.74" y="37.2">TUR</tspan><tspan class="cls-7" x="348.45" y="37.2">A</tspan><tspan x="369.68" y="37.2" xml:space="preserve"> I</tspan><tspan class="cls-2" x="386.91" y="37.2">T</tspan><tspan x="403.54" y="37.2">ALIC</tspan><tspan class="cls-8" x="475.87" y="37.2">A</tspan></tspan></text><path class="cls-9" d="M18,27.86l24-.24V4.94A57.92,57.92,0,0,0,18,99.87Z" transform="translate(-2.1 -2.1)"/><path class="cls-10" d="M102,27.86l-24-.24V4.94a57.92,57.92,0,0,1,24,94.93Z" transform="translate(-2.1 -2.1)"/><path class="cls-9" d="M36.07,112.74A58.16,58.16,0,0,1,18,99.87v12.87Z" transform="translate(-2.1 -2.1)"/><path class="cls-10" d="M83.93,112.74A58.16,58.16,0,0,0,102,99.87v12.87Z" transform="translate(-2.1 -2.1)"/><path class="cls-11" d="M83.93,112.74A58.16,58.16,0,0,0,102,99.87V27.62H78V4.94a58.15,58.15,0,0,0-35.9,0V27.86H18v72a58,58,0,0,0,65.92,12.87Z" transform="translate(-2.1 -2.1)"/><rect class="cls-9" x="22.2" y="61.43" width="12.06" height="30.84"/><circle class="cls-9" cx="28.44" cy="50.04" r="7.2"/><rect class="cls-10" x="81.12" y="61.43" width="12.06" height="30.84"/><circle class="cls-10" cx="87.36" cy="50.04" r="7.2"/><path class="cls-12" d="M69.18,84.33A5.93,5.93,0,1,1,65.83,73.5a5.86,5.86,0,0,1,3.33,1h0V61.09a18.11,18.11,0,0,0-5.1-.73h0a18.12,18.12,0,1,0,5.1,35.52h0V84.33Z" transform="translate(-2.1 -2.1)"/></svg>