<svg id="Capa_1" data-name="Capa 1" xmlns="http://www.w3.org/2000/svg" viewBox="0 0 115.8 115.8"><defs><style>.cls-1{fill:#008d36;}.cls-2{fill:#e30412;}.cls-3{fill:#fff;}.cls-4{fill:#c6c6c6;}</style></defs><path class="cls-1" d="M18,27.86l24-.24V4.94A57.92,57.92,0,0,0,18,99.87Z" transform="translate(-2.1 -2.1)"/><path class="cls-2" d="M102,27.86l-24-.24V4.94a57.92,57.92,0,0,1,24,94.93Z" transform="translate(-2.1 -2.1)"/><path class="cls-1" d="M36.07,112.74A58.16,58.16,0,0,1,18,99.87v12.87Z" transform="translate(-2.1 -2.1)"/><path class="cls-2" d="M83.93,112.74A58.16,58.16,0,0,0,102,99.87v12.87Z" transform="translate(-2.1 -2.1)"/><path class="cls-3" d="M83.93,112.74A58.16,58.16,0,0,0,102,99.87V27.62H78V4.94a58.15,58.15,0,0,0-35.9,0V27.86H18v72a58,58,0,0,0,65.92,12.87Z" transform="translate(-2.1 -2.1)"/><rect class="cls-1" x="22.2" y="61.43" width="12.06" height="30.84"/><circle class="cls-1" cx="28.44" cy="50.04" r="7.2"/><rect class="cls-2" x="81.12" y="61.43" width="12.06" height="30.84"/><circle class="cls-2" cx="87.36" cy="50.04" r="7.2"/><path class="cls-4" d="M69.18,84.33A5.93,5.93,0,1,1,65.83,73.5a5.86,5.86,0,0,1,3.33,1h0V61.09a18.11,18.11,0,0,0-5.1-.73h0a18.12,18.12,0,1,0,5.1,35.52h0V84.33Z" transform="translate(-2.1 -2.1)"/></svg>